# xmcd
#
# Track frame offsets: 
#        150
#        14440
#        27130
#        41295
#        54730
#        64952
#        76207
#        92012
#        103887
#        112015
#        122995
#        132987
#        139870
#        156542
#        167962
#
# Disc length: 2423 seconds
#
# Revision: 3
# Processed by: cddbd v1.5.2PL0 Copyright (c) Steve Scherf et al.
# Submitted via: ExactAudioCopy v0.99pb4
#
DISCID=d609750f
DTITLE=Various Artist - Back In The Saddle Again - American Cowboy Songs (Dis
DTITLE=c 2)
DYEAR=1983
DGENRE=Folk
TTITLE0=Wilf Carter (Montana Slim) - Little Old Log Shack I Always Cal
TTITLE0=l My Home
TTITLE1=Tex Ritter - A-Ridin' Old Paint
TTITLE2=Patsy Montana - I Want To Be A Cowboy's Sweetheart
TTITLE3=Tex Owens - Cattle Call
TTITLE4=Sons Of The Pioneers - One More Ride
TTITLE5=Texas Ruby - Dim Narrow Trail
TTITLE6=Girls Of The Golden West - I Want To Be A Real Cowboy Girl
TTITLE7=Gene Autry - Back In The Saddle Again
TTITLE8=Rex Allen - My Dear Old Arizona Home
TTITLE9=Bob Wills and The Texas Playboys - Cowboy Stomp
TTITLE10=Slim Critchlow - D-Bar-2 Horse Wrangler
TTITLE11=Sam Agins - City Boarders
TTITLE12=Glenn Ohrlin - The Cowboy
TTITLE13=Chris LeDoux - Rusty Spurs
TTITLE14=Riders In The Sky - Cowboy Song
EXTD=
EXTT0=
EXTT1=
EXTT2=
EXTT3=
EXTT4=
EXTT5=
EXTT6=
EXTT7=
EXTT8=
EXTT9=
EXTT10=
EXTT11=
EXTT12=
EXTT13=
EXTT14=
PLAYORDER=
